<?xml version="1.0" encoding="utf-8"?>
<!-- Generator: Adobe Illustrator 22.1.0, SVG Export Plug-In . SVG Version: 6.00 Build 0)  -->
<svg version="1.1" id="see" xmlns="http://www.w3.org/2000/svg" xmlns:xlink="http://www.w3.org/1999/xlink" x="0px" y="0px"
	 viewBox="0 0 566.3 493.1" style="enable-background:new 0 0 566.3 493.1;" xml:space="preserve">
<path d="M64.6,3.7L39,29.8l85.8,86.7C50.3,157.3,13.3,222,3.3,247.5c18.6,43,59.6,93.9,118.9,127.8c70.9,40.5,177.4,55.5,279.5,18
	l96.1,95.7l26.3-26.3L64.6,3.7z M44,246.6c0,0,27-59.3,109-102.3l50.6,50.8c-57.6,94.3,49.9,182.4,129,128.8l39.2,39.8
	c-84.1,24.7-143.1,13.4-197.5-4.4C90.3,324.8,56.3,268,44,246.6z"/>
<path d="M224,83c216.3-34.5,319,116,335,164c-18.3,43-50.9,76.4-74,97l-26.3-27c39.9-33.4,59.4-70.4,59.4-70.4
	C472.5,167.8,389.5,107,257.3,116.3L224,83z"/>
</svg>
